<svg 
 xmlns="http://www.w3.org/2000/svg"
 xmlns:xlink="http://www.w3.org/1999/xlink"
 width="758px" height="501px">
<path fill-rule="evenodd"  fill="#7DDA58"
 d="M751.400,88.898 L689.200,101.898 L685.200,83.698 L735.400,72.898 L727.000,56.298 L682.200,59.698 L675.000,114.698 L743.800,127.498 L740.200,145.898 L662.800,131.498 L655.200,120.898 L664.800,49.698 L673.200,41.698 L731.800,36.898 L741.000,41.898 L758.000,75.498 L751.400,88.898 ZM535.600,141.298 L526.400,131.098 L535.400,18.298 L544.000,9.898 L632.400,0.898 L643.000,10.098 L647.200,132.898 L637.600,142.498 L535.600,141.298 ZM624.400,20.498 L553.400,27.898 L546.200,122.498 L628.200,123.498 L624.400,20.498 ZM534.300,446.698 L513.100,444.098 L526.300,341.298 L547.700,344.498 L534.300,446.698 ZM481.600,37.498 L445.400,101.498 L428.600,100.698 L401.400,41.498 L384.200,137.698 L365.600,134.298 L388.200,8.498 L405.800,6.298 L438.200,76.098 L478.200,5.498 L495.600,8.498 L518.400,134.298 L499.800,137.698 L481.600,37.498 ZM294.800,101.898 L290.800,83.698 L340.1000,72.898 L332.600,56.298 L287.800,59.698 L280.600,114.698 L349.400,127.498 L345.800,145.898 L268.400,131.498 L260.800,120.898 L270.400,49.698 L278.800,41.698 L337.400,36.898 L346.600,41.898 L363.600,75.498 L356.1000,88.898 L294.800,101.898 ZM169.600,132.698 L160.800,122.498 L165.600,53.898 L174.600,45.298 L240.1000,42.498 L250.800,51.698 L252.800,127.298 L242.800,136.898 L169.600,132.698 ZM232.400,61.698 L183.800,63.698 L180.400,114.498 L233.800,117.498 L232.400,61.698 ZM115.1000,37.498 L79.800,101.498 L62.1000,100.698 L35.800,41.498 L18.600,137.698 L-0.000,134.298 L22.600,8.498 L40.200,6.298 L72.600,76.098 L112.600,5.498 L129.1000,8.498 L152.800,134.298 L134.200,137.698 L115.1000,37.498 ZM171.100,348.498 L279.700,355.698 L278.500,374.498 L179.500,368.098 L171.700,475.498 L266.900,470.698 L263.500,434.498 L207.700,432.098 L208.500,413.098 L272.500,416.098 L281.500,424.498 L286.700,478.698 L277.900,489.098 L161.900,494.698 L151.900,484.698 L161.100,357.298 L171.100,348.498 ZM315.300,431.298 L378.500,431.298 L374.300,400.098 L302.300,417.698 L297.700,399.498 L379.900,379.298 L391.500,387.298 L402.700,470.298 L415.758,474.029 L430.300,371.898 L448.900,374.298 L431.900,495.298 L413.100,492.698 L414.689,481.537 L411.700,492.298 L391.700,486.698 L388.100,482.498 L305.500,495.698 L294.700,484.298 L306.300,438.498 L315.300,431.298 ZM382.900,464.098 L381.100,450.298 L322.700,450.298 L316.500,474.698 L382.900,464.098 ZM482.700,498.698 L461.500,500.298 L458.900,468.498 L480.100,466.698 L482.700,498.698 ZM475.900,341.298 L497.300,344.498 L483.900,446.698 L462.700,444.098 L475.900,341.298 ZM533.100,498.698 L511.900,500.298 L509.300,468.498 L530.500,466.698 L533.100,498.698 ZM583.500,498.698 L562.300,500.298 L559.700,468.498 L580.900,466.698 L583.500,498.698 ZM576.700,341.298 L598.100,344.498 L584.700,446.698 L563.500,444.098 L576.700,341.298 Z"/>
</svg>